<svg width="2500" height="2500" viewBox="0 0 48 48" fill="none" xmlns="http://www.w3.org/2000/svg"><path d="M30.932 9.343 7.976 23.894 6.002 20.78v-2.684c0-.977.494-1.888 1.314-2.42l13.345-8.659a6.14 6.14 0 0 1 6.685 0z" fill="url(#a)"/><path d="M27.14 6.89q.105.06.206.127l10.414 6.755L11.938 30.14l-3.963-6.25 18.951-12.037c1.795-1.14 1.874-3.704.214-4.964" fill="url(#b)"/><path d="M27.14 6.89q.105.06.206.127l10.414 6.755L11.938 30.14l-3.963-6.25 18.951-12.037c1.795-1.14 1.874-3.704.214-4.964" fill="url(#c)" fill-opacity=".2"/><path d="M22.24 33.266 11.938 30.14l21.904-13.885c1.845-1.17 1.84-3.863-.009-5.026l-.099-.062.285.177 6.666 4.324A2.89 2.89 0 0 1 42 18.09v2.598z" fill="url(#d)"/><path d="M22.24 33.266 11.938 30.14l21.904-13.885c1.845-1.17 1.84-3.863-.009-5.026l-.099-.062.285.177 6.666 4.324A2.89 2.89 0 0 1 42 18.09v2.598z" fill="url(#e)" fill-opacity=".2"/><path d="M27.346 7.017a6.14 6.14 0 0 0-6.686 0l-13.344 8.66a2.89 2.89 0 0 0-1.314 2.419v.131a2.96 2.96 0 0 0 1.382 2.41L23.976 31.1l16.635-10.445a2.97 2.97 0 0 0 1.388-2.511v2.544-2.597c0-.978-.495-1.889-1.314-2.42z" fill="url(#f)"/><path d="M21.051 42.004h14.697a6.25 6.25 0 0 0 6.25-6.25V18.143c0 1.02-.524 1.968-1.388 2.51L18.75 34.38a4.05 4.05 0 0 0-1.895 3.427 4.197 4.197 0 0 0 4.196 4.197" fill="url(#g)"/><path d="M21.051 42.004h14.697a6.25 6.25 0 0 0 6.25-6.25V18.143c0 1.02-.524 1.968-1.388 2.51L18.75 34.38a4.05 4.05 0 0 0-1.895 3.427 4.197 4.197 0 0 0 4.196 4.197" fill="url(#h)" fill-opacity=".4"/><path d="M21.051 42.004h14.697a6.25 6.25 0 0 0 6.25-6.25V18.143c0 1.02-.524 1.968-1.388 2.51L18.75 34.38a4.05 4.05 0 0 0-1.895 3.427 4.197 4.197 0 0 0 4.196 4.197" fill="url(#i)" fill-opacity=".5"/><path d="M27.027 42.002H12.249A6.25 6.25 0 0 1 6 35.752V18.13c0 1.018.523 1.965 1.384 2.508l21.839 13.768a4.115 4.115 0 0 1-2.195 7.596" fill="url(#j)"/><path d="M27.027 42.002H12.249A6.25 6.25 0 0 1 6 35.752V18.13c0 1.018.523 1.965 1.384 2.508l21.839 13.768a4.115 4.115 0 0 1-2.195 7.596" fill="url(#k)"/><rect x="4" y="23" width="16" height="16" rx="3.25" fill="url(#l)"/><rect x="4" y="23" width="16" height="16" rx="3.25" fill="url(#m)" fill-opacity=".5"/><path d="M11.959 35.6q-1.985 0-3.258-1.242-1.274-1.24-1.274-3.24 0-2.11 1.293-3.415 1.292-1.303 3.386-1.303 1.978 0 3.22 1.248 1.248 1.248 1.248 3.29 0 2.098-1.293 3.383-1.286 1.28-3.322 1.279m.038-1.757q1.083 0 1.742-.739.66-.738.659-2.054 0-1.372-.64-2.136t-1.71-.764q-1.1 0-1.773.789-.672.781-.672 2.073 0 1.31.672 2.074.672.757 1.722.757" fill="white"/><path d="M11.955 35.723q-1.977 0-3.245-1.275-1.27-1.275-1.27-3.329 0-2.168 1.289-3.507 1.287-1.34 3.373-1.34 1.97 0 3.208 1.283 1.243 1.28 1.243 3.38 0 2.154-1.288 3.475-1.281 1.314-3.31 1.313m.039-1.804q1.077 0 1.734-.76.657-.758.657-2.11 0-1.409-.638-2.194-.637-.784-1.702-.784-1.097 0-1.767.81-.67.803-.67 2.13 0 1.346.67 2.13.67.777 1.716.778" fill="white"/><defs><linearGradient id="a" x1="9.989" y1="22.365" x2="30.932" y2="9.375" gradientUnits="userSpaceOnUse"><stop stop-color="#20A7FA"/><stop offset=".4" stop-color="#3BD5FF"/><stop offset="1" stop-color="#C4B0FF"/></linearGradient><linearGradient id="b" x1="17.197" y1="26.794" x2="28.856" y2="8.126" gradientUnits="userSpaceOnUse"><stop stop-color="#165AD9"/><stop offset=".501" stop-color="#1880E5"/><stop offset="1" stop-color="#8587FF"/></linearGradient><linearGradient id="c" x1="25.701" y1="27.048" x2="12.756" y2="16.501" gradientUnits="userSpaceOnUse"><stop offset=".237" stop-color="#448AFF" stop-opacity="0"/><stop offset=".792" stop-color="#0032B1"/></linearGradient><linearGradient id="d" x1="24.053" y1="31.11" x2="44.51" y2="18.018" gradientUnits="userSpaceOnUse"><stop stop-color="#1A43A6"/><stop offset=".492" stop-color="#2052CB"/><stop offset="1" stop-color="#5F20CB"/></linearGradient><linearGradient id="e" x1="29.828" y1="30.327" x2="17.398" y2="19.571" gradientUnits="userSpaceOnUse"><stop stop-color="#0045B9" stop-opacity="0"/><stop offset=".67" stop-color="#0D1F69"/></linearGradient><radialGradient id="f" cx="0" cy="0" r="1" gradientUnits="userSpaceOnUse" gradientTransform="translate(24.0018 6.81788) rotate(-90) scale(27.0027 29.2262)"><stop offset=".568" stop-color="#275FF0" stop-opacity="0"/><stop offset=".992" stop-color="#002177"/></radialGradient><linearGradient id="g" x1="41.998" y1="29.943" x2="23.852" y2="29.943" gradientUnits="userSpaceOnUse"><stop stop-color="#4DC4FF"/><stop offset=".196" stop-color="#0FAFFF"/></linearGradient><radialGradient id="h" cx="0" cy="0" r="1" gradientUnits="userSpaceOnUse" gradientTransform="translate(28.0928 37.9117) rotate(-45) scale(11.572)"><stop offset=".259" stop-color="#0060D1"/><stop offset=".908" stop-color="#0383F1" stop-opacity="0"/></radialGradient><radialGradient id="i" cx="0" cy="0" r="1" gradientUnits="userSpaceOnUse" gradientTransform="translate(10.6314 46.472) rotate(-52.6577) scale(39.2814 35.5204)"><stop offset=".732" stop-color="#F4A7F7" stop-opacity="0"/><stop offset="1" stop-color="#F4A7F7"/></radialGradient><radialGradient id="j" cx="0" cy="0" r="1" gradientUnits="userSpaceOnUse" gradientTransform="translate(18.5708 27.5319) rotate(123.339) scale(20.7258 53.7859)"><stop stop-color="#49DEFF"/><stop offset=".724" stop-color="#29C3FF"/></radialGradient><linearGradient id="k" x1="3.458" y1="37.872" x2="20.929" y2="37.86" gradientUnits="userSpaceOnUse"><stop offset=".206" stop-color="#6CE0FF"/><stop offset=".535" stop-color="#50D5FF" stop-opacity="0"/></linearGradient><radialGradient id="l" cx="0" cy="0" r="1" gradientUnits="userSpaceOnUse" gradientTransform="translate(3.94291 23.6154) rotate(46.9242) scale(21.0618)"><stop offset=".039" stop-color="#0091FF"/><stop offset=".919" stop-color="#183DAD"/></radialGradient><radialGradient id="m" cx="0" cy="0" r="1" gradientUnits="userSpaceOnUse" gradientTransform="translate(12 32.7439) rotate(90) scale(11.2 12.9188)"><stop offset=".558" stop-color="#0FA5F7" stop-opacity="0"/><stop offset="1" stop-color="#74C6FF"/></radialGradient></defs></svg>